<svg id="Layer_1" enable-background="new 0 0 64 64" viewBox="0 0 64 64" xmlns="http://www.w3.org/2000/svg"><g fill="none" stroke="#000" stroke-linecap="round" stroke-linejoin="round" stroke-miterlimit="10"><g><path d="m5.49 43.91 4.51 2.28c.48.24 1.06.05 1.3-.43l9.57-18.9c.24-.48.05-1.06-.42-1.3l-4.51-2.28c-.48-.24-1.06-.05-1.3.43l-9.57 18.9c-.25.48-.06 1.06.42 1.3z"/><path d="m58.49 43.71-4.56 2.18c-.48.23-1.06.03-1.28-.45l-9.1-19.01c-.23-.48-.03-1.06.45-1.28l4.56-2.18c.48-.23 1.06-.03 1.28.45l9.1 19.01c.24.48.03 1.05-.45 1.28z"/><path d="m36.1 44.99 10.82 7.94c.55.41 1.21.61 1.85.61.85 0 1.69-.35 2.31-1.01 1.18-1.28 1.08-3.28-.21-4.45-4.03-3.64-12.08-10.91-14.88-13.44-.88-.79-1.93-1.38-3.1-1.58-4.38-.79-5.05 3.89-5.05 3.89-.13 3.37-4.52 5.16-6.8 3.44-.18-.14-.22-.42-.12-.63.79-1.59 1.06-3.62 1.16-5.1.1-1.55.76-3.01 1.84-4.13.36-.37.72-.71 1.09-1.02h.01c7.76-6.57 16.99-.41 19.61-.78"/><path d="m46.92 52.93c1.57 2.2.56 4.18-1.18 4.83-1.11.42-2.36.14-3.3-.58l-9.61-7.35"/><path d="m30.3 54.77 8.21 5.86c.9.64 2.13.77 3.06.18 1.19-.75 1.87-2.14.87-3.64"/><path d="m11.56 53.28c-1.2-1.2-1.2-3.14 0-4.34l2.88-2.88c1.2-1.2 3.14-1.2 4.34 0 1.2 1.2 1.2 3.14 0 4.34l-2.88 2.88c-1.2 1.2-3.14 1.2-4.34 0z"/><path d="m12.28 43.83 2.16 2.23"/><path d="m18.78 50.44c1.14-1.22 2.49-1.18 3.51-.51 1.69 1.11 1.8 3.64.39 5.11l-2.07 2.15c-.95.99-2.41 1.37-3.63.78-1.63-.78-2.26-2.84-1.58-4.27"/><path d="m23.52 53.54s2.4-.58 3.89.8c1.19 1.11 1.17 3.02.15 4.28l-1.33 1.65c-.87 1.07-2.32 1.52-3.62 1.04-1.78-.66-2.83-2.23-2.36-3.81"/><path d="m28.29 56.89s2.38-.44 3.44 1.71c.53 1.06.27 2.35-.57 3.19l-.84.84c-.91.91-2.37 1.17-3.43.44-.8-.54-1.19-1.43-1.12-2.35"/><path d="m31.16 61.8c2.07 1.86 5.08.94 5.75-2.3"/><path d="m19.73 29.12 5.3.36"/><path d="m52.16 44.42c-.31 1-.98 2-2.01 3"/></g><g><path d="m23.59 13.89c-1.13 0-2.04-.92-2.04-2.04v-9.3c0-1.13.92-2.04 2.04-2.04 1.13 0 2.04.92 2.04 2.04v9.3c.01 1.12-.91 2.04-2.04 2.04z"/><path d="m40.41 13.89c-1.13 0-2.04-.92-2.04-2.04v-9.3c0-1.13.92-2.04 2.04-2.04 1.13 0 2.04.92 2.04 2.04v9.3c0 1.12-.91 2.04-2.04 2.04z"/><path d="m25.64 2.54h12.72"/><path d="m25.64 11.84h12.72"/><path d="m27.8 11.84v1.29c0 .86.7 1.56 1.56 1.56h5.43c.86 0 1.56-.7 1.56-1.56v-1.29"/><path d="m35.17 26.55-.37-11.86"/><path d="m29.36 14.69-.74 12.64"/></g></g></svg>