<svg id="Layer_1" enable-background="new 0 0 50 50" viewBox="0 0 50 50" xmlns="http://www.w3.org/2000/svg"><g><path d="m27.23979 22.21756c.63927.65978 1.2579 1.31956 1.86596 1.9896l4.58764-4.59771c-.67023-.60825-1.32988-1.22676-1.98979-1.85558z"/><path d="m45.77509 29.73275c-9.14833-7.57117-9.07914-7.44416-10.92723-9.09241l-4.71122 4.72147c1.30027 1.4378 2.10738 2.48051 9.08216 10.92736 1.75245 2.10299 4.93798 2.26796 6.88624.31957 1.9382-1.93807 1.78367-5.12354-.32995-6.87599z"/><path d="m18.311 9h11.94v11.59h-11.94z" transform="matrix(.707 -.707 .707 .707 -3.35 21.503)"/><path d="m34.23098 14.11129c.40244.40256 1.05505.40256 1.45774 0l2.08291-2.08285c.40269-.40263.40269-1.0553 0-1.45792l-9.26866-9.26859c-.40244-.40256-1.0553-.40256-1.45799 0l-2.08266 2.08285c-.40269.40263-.40269 1.0553 0 1.45792z"/><path d="m20.05908 28.283c.40269.40263 1.0553.40263 1.45799 0l2.08291-2.08278c.40244-.40263.40244-1.05536 0-1.45793l-9.26866-9.26859c-.40269-.40256-1.0553-.40256-1.45799 0l-2.08291 2.08285c-.40244.40256-.40244 1.0553 0 1.45786z"/><path d="m28.79669 42.45384h-24.64863c-.81444 0-1.4741.65978-1.4741 1.47416v3.59784c0 .81438.65966 1.47416 1.4741 1.47416h24.64863c.81419 0 1.47409-.65978 1.47409-1.47416v-3.59784c0-.81438-.6599-1.47416-1.47409-1.47416z"/><path d="m9.65207 35.83633c-1.82318 0-3.3013 1.478-3.3013 3.30117v1.76881h20.22785v-1.76881c0-1.82318-1.47787-3.30117-3.30105-3.30117z"/><path d="m7.24273 29.77088c.26986.32953.75771.37871 1.08776.10772.33071-.27081.37903-.75706.10822-1.08827l-2.16345-2.64164c-.2698-.3292-.75756-.37853-1.08777-.10772-.33071.27081-.37903.75706-.10822 1.08827z"/><path d="m3.07087 32.32595 2.90792.93927c.41307.13155.84394-.09729.9735-.49833.13087-.40672-.09211-.84162-.49833-.9735l-2.90792-.93927c-.40672-.12785-.84263.09262-.9735.49833-.13088.40671.09211.84162.49833.9735z"/><path d="m10.23169 27.43025c.10922.39952.52098.65615.94984.54262.41175-.11275.65437-.53759.54212-.94934l-.8527-3.12185c-.11275-.41276-.53709-.65135-.94984-.54262-.41174.11275-.65436.53759-.54211.94934z"/></g></svg>