<svg clip-rule="evenodd" fill-rule="evenodd" stroke-linejoin="round" stroke-miterlimit="2" viewBox="0 0 32 32" xmlns="http://www.w3.org/2000/svg" xmlns:serif="http://www.serif.com/"><g transform="translate(0 -192)"><path d="m8 204v-6c0-.265.105-.52.293-.707.187-.188.442-.293.707-.293h16c.265 0 .52.105.707.293.188.187.293.442.293.707v20c0 .265-.105.52-.293.707-.187.188-.442.293-.707.293h-16c-.265 0-.52-.105-.707-.293-.188-.187-.293-.442-.293-.707v-6c0-.552-.448-1-1-1s-1 .448-1 1v6c0 .796.316 1.559.879 2.121.562.563 1.325.879 2.121.879h16c.796 0 1.559-.316 2.121-.879.563-.562.879-1.325.879-2.121 0-4.52 0-15.48 0-20 0-.796-.316-1.559-.879-2.121-.562-.563-1.325-.879-2.121-.879-3.832 0-12.168 0-16 0-.796 0-1.559.316-2.121.879-.563.562-.879 1.325-.879 2.121v6c0 .552.448 1 1 1s1-.448 1-1zm4.586 3h-9.586c-.552 0-1 .448-1 1s.448 1 1 1h9.586l-2.293 2.293c-.39.39-.39 1.024 0 1.414s1.024.39 1.414 0l4-4c.391-.39.391-1.024 0-1.414l-4-4c-.39-.39-1.024-.39-1.414 0s-.39 1.024 0 1.414z"/></g></svg>