<svg id="Layer_1" viewBox="0 0 64 64" xmlns="http://www.w3.org/2000/svg" data-name="Layer 1"><path d="m23.581 61.979c.065.014.133.021.2.021s.135-.007.2-.021c1.061-.217 2.088-.496 3.165-.862.34-.125.67-.251.974-.391 3.831-1.619 6.928-4.74 8.62-8.607h16.875c.553 0 1-.448 1-1v-38.866c0-.025-.009-.048-.01-.073-.006-.085-.021-.167-.048-.248-.008-.024-.008-.049-.017-.072 0-.002-.003-.003-.004-.006-.003-.008-.01-.013-.014-.021-.049-.108-.11-.21-.197-.297l-9.243-9.243c-.086-.086-.188-.148-.296-.196-.011-.005-.02-.016-.031-.021-.023-.01-.048-.008-.072-.016-.078-.026-.158-.041-.24-.047-.024-.002-.046-.013-.069-.013h-26.533c-.553 0-1 .448-1 1v28.035c-2.173.72-4.36 1.158-6.511 1.273-.531.028-.947.467-.947.999v12.013c0 7.132 4.439 13.483 11.054 15.805 1.019.349 2.077.637 3.145.855zm21.794-56.563 5.827 5.827h-5.827zm-2-1.416v8.243c0 .552.447 1 1 1h8.24v36.876h-15.126c.008-.026.013-.053.02-.08.027-.093.047-.188.072-.281.1-.369.188-.741.263-1.115.029-.148.055-.296.08-.445.058-.339.106-.68.143-1.023.015-.141.034-.282.046-.424.04-.475.066-.951.066-1.43v-12.013c0-.53-.414-.968-.943-.999-3.781-.216-7.039-1.337-9.107-2.241-2.339-1.017-3.751-2.019-3.766-2.028-.346-.247-.812-.249-1.16-.003-.002.002-.042.029-.089.061-.02.013-.059.038-.086.056-.05.033-.109.071-.181.117-.047.03-.107.067-.163.101-.08.05-.17.104-.267.163-.072.043-.152.09-.234.137-.111.065-.234.134-.362.205-.092.052-.186.104-.286.158-.149.081-.315.167-.482.253-.101.052-.198.103-.306.157-.227.114-.474.231-.729.35-.065.03-.123.059-.189.09-.311.141-.644.285-.99.427v-26.312h24.534zm-31.992 41.32v-11.083c2.257-.206 4.538-.72 6.79-1.53 2.705-.953 4.682-2.081 5.606-2.659.67.42 1.893 1.131 3.551 1.852 2.044.893 5.177 1.986 8.85 2.333v11.086c0 1.865-.343 3.695-1.02 5.438-1.422 3.666-4.271 6.628-7.847 8.139-.284.13-.567.237-.834.335-.906.308-1.791.553-2.698.747-.916-.196-1.821-.446-2.689-.743-5.808-2.039-9.709-7.631-9.709-13.916z"/><path d="m23.781 12.923h14.444c.553 0 1-.448 1-1s-.447-1-1-1h-14.444c-.553 0-1 .448-1 1s.447 1 1 1z"/><path d="m30.678 8.622h7.548c.553 0 1-.448 1-1s-.447-1-1-1h-7.548c-.553 0-1 .448-1 1s.447 1 1 1z"/><path d="m23.781 8.622h3.412c.553 0 1-.448 1-1s-.447-1-1-1h-3.412c-.553 0-1 .448-1 1s.447 1 1 1z"/></svg>